<svg xmlns="http://www.w3.org/2000/svg" width="120.945" height="120.945" viewBox="0 0 32 32" baseProfile="tiny-ps"><path d="M19.488 19.212c.012-.039.006-.111-.012-.162-.032-.087-.047-.092-.303-.086-.263.006-.27.003-.281-.088-.006-.052-.035-.098-.064-.102l-.179-.034a1.79 1.79 0 0 0-.206-.03c-.145-.008-.113-.039.216-.207.205-.105.546-.341.675-.467.123-.121.21-.155.21-.084 0 .03.03.055.066.055.094 0 .115-.036.068-.114-.033-.055-.028-.084.026-.146.037-.042.084-.077.106-.077a4.65 4.65 0 0 0 .772-.857c0-.018.037-.074.082-.125s.13-.17.188-.264l.152-.241c.044-.066.046-.066.027-.001a.7.7 0 0 0-.02.158c0 .049-.048.147-.107.218s-.107.148-.107.171-.024.053-.054.065-.054.06-.054.107-.067.16-.161.265c-.089.098-.161.197-.161.22s.036-.003.081-.058.108-.108.142-.12.096-.099.138-.193c.149-.333.217-.271.112.102l-.118.459a2.79 2.79 0 0 1-.142.413l-.178.405c-.044.099-.07.189-.06.201.034.036-.193.463-.246.463-.028 0-.051.024-.051.053 0 .061-.244.116-.353.08-.041-.014-.092.001-.124.034-.074.077-.105.073-.079-.013zm-.016-.812c0-.103-.095-.13-.172-.049-.06.062-.054.097.02.117.128.035.152.024.152-.068zm.821-.272c-.002-.09-.006-.094-.031-.028-.016.041-.022.088-.013.103.03.055.047.027.045-.075zm.396-.647c0-.021-.016-.038-.036-.038s-.036.017-.036.038.016.038.036.038.036-.017.036-.038zm-2.501 1.354c-.028-.018-.013-.042.047-.07.049-.023.097-.03.106-.014.026.044-.104.115-.153.084zm7.733-.136c-.158-.052-.404-.262-.892-.762-.143-.146-.26-.291-.26-.323s-.021-.057-.047-.057-.078-.023-.115-.052c-.056-.043-.06-.062-.023-.109.028-.035.032-.066.01-.08s-.045-.006-.058.015-.037.038-.055.038-.392-.37-.83-.822l-1.21-1.306c-.018-.046-.054-.075-.08-.065-.038.015-.206-.134-.645-.575l-.242-.263c-.177-.194-.209-.248-.18-.304s.016-.087-.047-.149c-.045-.044-.101-.08-.124-.08-.061 0-.052.073.011.099.03.012.054.057.054.101 0 .06-.101-.029-.412-.361l-.412-.458c0-.051.11-.007.143.057.053.104.107.094.107-.021 0-.054-.015-.086-.036-.073-.064.041-.042-.325.024-.401.048-.055.052-.086.019-.153-.022-.046-.045-.204-.051-.35-.009-.238-.004-.264.052-.249.077.021.082-.04.009-.104-.059-.051-.069-.142-.024-.217.022-.037.048-.03.112.028.121.11.15.094.123-.065-.033-.194-.043-.204-.138-.139-.075.052-.085.051-.106-.004-.015-.041.001-.067.049-.081.093-.025.091-.064-.006-.131-.049-.034-.067-.072-.049-.102.029-.049.093.001.28.222a3.5 3.5 0 0 0 .196.206l.939.995c0 .02-.016.037-.036.037s-.036.036-.036.079c0 .077.002.077.07-.009l.07-.089.373.394.753.769c.209.206.39.406.401.443s.06.083.108.102.102.077.121.129.063.095.098.096.127.085.204.188.162.186.188.186.076.047.11.105.131.17.216.25c.134.126.151.159.131.254-.021.101-.018.106.047.063.091-.06.18-.022.222.094a.3.3 0 0 0 .114.138c.044.025.172.144.283.265s.219.22.239.22c.042 0 .152.164.152.226 0 .027-.057.035-.158.024-.12-.013-.154-.006-.141.031.01.027.05.058.09.069s.062.038.049.06-.008.04.01.04.043-.025.055-.056c.028-.075.235-.073.339.003.061.044.071.072.043.108s-.006.064.097.115c.216.107.513.441.551.621a.55.55 0 0 0 .086.209c.064.067.069.249.01.362-.023.045-.045.115-.048.155-.009.111-.298.353-.497.415-.204.064-.204.064-.408-.003zm.114-.148c-.023-.062-.07-.074-.099-.024-.024.041.012.08.073.08.027 0 .038-.024.026-.056zm.362-.246c-.023-.076-.029-.078-.06-.02-.019.036-.025.092-.012.125.035.095.103-.004.073-.105zm-.697-.087c0-.029-.047-.059-.107-.069-.108-.017-.156.056-.063.096.088.037.17.024.17-.027zm1.002-.136c0-.042-.024-.075-.054-.075-.054 0-.073.079-.03.125s.084.025.084-.05zm-1.289-.038c0-.021-.024-.038-.054-.038s-.054.017-.054.038.024.038.054.038.054-.017.054-.038zm-.358-.411c0-.02-.036-.056-.081-.081s-.1-.072-.123-.104c-.029-.04-.054-.047-.079-.022-.047.048-.014.095.121.177.123.074.161.081.161.03zm.143-.189c0-.021-.016-.038-.036-.038s-.036.017-.036.038.016.038.036.038.036-.017.036-.038zm1.143-.216c-.003-.078-.063-.234-.067-.173-.001.023-.035.051-.074.062-.088.024-.094.127-.009.151.122.033.152.025.15-.04zm-1.845-.182c.029-.078-.003-.128-.082-.128-.091 0-.114.037-.073.117.044.086.125.091.155.01zm-.557-.64c-.007-.041-.05-.075-.102-.082s-.117-.039-.152-.071c-.056-.053-.063-.053-.063 0 0 .084.251.306.294.26.019-.02.029-.068.022-.106zm.113-.163c0-.021-.016-.038-.036-.038s-.036.017-.036.038.016.038.036.038.036-.017.036-.038zm1.11-.071c0-.043-.285-.342-.326-.342-.062 0-.03.119.067.246.091.119.26.182.26.096zm-1.741-.324c.014-.038-.018-.082-.095-.131-.128-.082-.154-.059-.1.089.04.11.16.136.194.042zm.703-.278c0-.019-.016-.046-.036-.058s-.036.003-.036.035.016.058.036.058.036-.016.036-.035zm.359-.128c-.017-.018-.069-.052-.115-.076s-.089-.085-.096-.136c-.016-.126-.078-.188-.078-.079s.258.428.294.367c.014-.023.011-.057-.006-.075zm-1.743-.316c-.011-.046-.043-.083-.07-.083-.065 0-.062.035.01.119s.088.074.06-.036zm.99-.158c0-.021-.028-.037-.063-.037-.054 0-.055.006-.009.037.068.046.072.046.072 0zm.465 0c0-.021-.031-.038-.069-.038-.044 0-.073-.03-.081-.084-.013-.098-.112-.115-.129-.022-.007.037.019.072.062.087s.074.04.074.059.032.035.072.035.072-.017.072-.038zm-.402-.331c.008-.024-.03-.061-.083-.082-.077-.031-.093-.057-.079-.132s.003-.093-.068-.093c-.065 0-.085.02-.085.09 0 .049.023.099.05.11s.061.073.075.138c.023.11.03.114.1.065.041-.029.081-.072.089-.096zm-1.717-.056c-.031-.032-.074-.04-.119-.022-.039.016-.051.03-.026.032s.054-.002.065-.007.038.024.06.065c.025.046.045.057.054.028s-.007-.068-.034-.096zm-.315-.138c0-.021-.016-.038-.036-.038s-.036.017-.036.038.016.038.036.038.036-.017.036-.038zm1.169-.197c-.01-.026-.018-.005-.018.047s.008.073.018.047.01-.068 0-.094zm.549-.033c0-.083-.067-.091-.16-.02-.087.066-.045.132.069.109.058-.012.09-.043.09-.089zm-1.898-.136c-.001-.074-.069-.131-.127-.108s-.059.029.005.079c.076.06.122.071.121.028zm1.611-.023c0-.061-.161-.249-.213-.249-.046 0-.047.02-.004.104a.93.93 0 0 1 .053.131c.023.077.165.09.165.015zm-.787-.329c0-.066-.009-.072-.053-.033-.054.047-.042.113.02.113.019 0 .034-.036.034-.08zm.495-.139c.013-.095-.019-.101-.119-.023-.061.049-.064.062-.018.092.075.05.123.026.137-.069zm-1.801.031c.012-.021.005-.038-.016-.038s-.038-.02-.038-.045c0-.069-.185-.255-.253-.255-.06 0-.165.1-.136.13a1.07 1.07 0 0 0 .256.055c.015.002.043.045.062.097.035.098.087.121.125.056zm1.473-.169c.011-.031 0-.083-.025-.115-.04-.051-.05-.051-.076-.003-.033.063-.003.174.047.174.018 0 .042-.026.054-.057zm-1.383-.185c0-.009-.016-.027-.036-.04s-.036-.005-.036.017.016.04.036.04.036-.007.036-.017zm1.074-.225c0-.052-.132-.121-.165-.086-.009.009-.006.045.006.078.028.076.158.082.158.008zm-1.002-.471c0-.021-.016-.038-.036-.038s-.036.017-.036.038.016.038.036.038.036-.017.036-.038zm.348-.135c-.012-.012-.043-.014-.069-.003s-.02.021.022.023.059-.007.047-.02zm-.236-.228c-.031-.056-.038-.058-.039-.009-.001.063.036.12.062.093.008-.009-.002-.047-.023-.084zm-.112-.237c0-.021-.016-.038-.036-.038s-.036.017-.036.038.016.038.036.038.036-.017.036-.038zm-.215-.09c0-.071-.097-.106-.12-.043s.006.095.072.095c.026 0 .048-.024.048-.052zm-9.575 5.942c-.012-.021-.005-.038.016-.038s.038.017.038.038-.007.038-.016.038-.026-.017-.038-.038zm-.409-.303c-.061-.064-.11-.133-.11-.155s-.03-.031-.067-.021c-.05.014-.082-.015-.126-.11-.032-.071-.075-.118-.095-.105-.033.021-.025.083.028.233.028.078-.093.053-.134-.028-.046-.091-.163-.099-.194-.013-.02.056-.028.055-.074-.009s-.052-.066-.053-.006c-.002.116-.165.083-.215-.044-.065-.165-.216-.198-.216-.047 0 .069-.352-.291-.426-.436-.036-.07-.029-.094.044-.166l.355-.356c.148-.15.288-.272.311-.272s.051.052.063.116.044.125.071.135.049.046.049.077c0 .108.245.45.34.475.064.017.098.057.112.134.012.061.048.12.082.131.068.023.37.378.406.478.041.114-.036.108-.15-.011zm-1.327-.485c0-.041-.016-.075-.036-.075s-.036.034-.036.075.016.075.036.075.036-.034.036-.075zm.644-.002c0-.019-.016-.035-.036-.035s-.036.026-.036.058.016.048.036.035.036-.039.036-.058zm-.785-.271c-.004-.045-.054-.036-.069.012-.008.025.005.038.029.03s.042-.027.04-.042zm.14-.162c0-.066-.077-.055-.099.015-.008.024.011.045.043.045s.057-.027.057-.059zm.179.847c0-.021.016-.038.036-.038s.036.017.036.038-.016.038-.036.038-.036-.017-.036-.038zm6.526-.717c-.225-.068-.262-.17-.262-.729v-.497l.106-.119.106-.119.55.012c.725.016.741.032.741.724s-.077.772-.742.766c-.212-.002-.437-.019-.5-.038zm8.535-2.68l-.206-.222c0-.011.032-.02.072-.02.048 0 .072-.025.072-.075 0-.086-.043-.095-.144-.028-.062.04-.085.033-.17-.055l-.25-.239c-.084-.076-.152-.161-.152-.189s-.024-.052-.054-.052-.054-.024-.054-.053-.056-.089-.123-.133-.133-.11-.144-.147c-.035-.117-.01-1.923.027-1.885.019.019.052.069.074.111s.11.181.194.31c.175.267.185.384.034.402-.111.013-.118.033-.045.134.028.039.042.086.032.105-.026.044.057.148.098.122.017-.011.032-.069.032-.129s.019-.12.042-.135c.056-.037.173.121.173.234 0 .05.022.1.05.111.061.024.179.336.148.389-.012.021.011.076.052.122s.084.127.096.179a.48.48 0 0 0 .048.132c.042.059.182.66.175.747-.008.093.03.204.102.291.028.035.046.088.039.119-.008.039-.075-.006-.218-.146zm-.284-.683c.013-.092-.027-.109-.094-.039s-.052.15.02.136c.034-.007.068-.05.074-.097zm-.016-.403c-.011-.031-.027-.056-.035-.056s-.014.025-.014.056.016.056.035.056.025-.025.014-.056zm-.601-.098c.014-.023-.022-.081-.078-.128-.076-.064-.106-.073-.114-.035-.029.132.131.268.193.164zm.323-.549c-.039-.041-.066.024-.038.092s.029.064.043-.001c.009-.038.006-.079-.006-.091zm-.415-.61c0-.15-.015-.263-.036-.263s-.036.113-.036.263.015.263.036.263.036-.113.036-.263zm-3.83 1.238c0-.021.024-.038.054-.038s.054.017.054.038-.024.038-.054.038-.054-.017-.054-.038zm.238-.233c-.011-.046-.012-.092-.001-.103.028-.029.122.116.1.154-.033.057-.077.034-.099-.051zm-.54-.025c-.015-.026-.018-.058-.007-.07.032-.034.067.016.05.07-.012.038-.021.038-.043 0zm2.943-.909c-.059-.035-1.035-1.033-1.77-1.811l-.102-.107V8.684c0-1.309-.014-1.235.262-1.414.112-.073.17-.079.647-.075.707.007.783.023.926.195l.117.14.002 2.128-.009 2.14c-.006.007-.039-.004-.072-.023zm-.028-.334c0-.021-.016-.038-.036-.038s-.036.017-.036.038.016.038.036.038.036-.017.036-.038zm-1.002-1.014c0-.048-.102-.092-.135-.058-.013.014-.001.041.028.06.069.046.106.045.106-.003zm-.69-2.447c-.008-.088-.014-.016-.014.159s.006.247.014.159.008-.231 0-.319zm.08-.355c.046-.056.047-.086.004-.086-.061 0-.146.117-.145.2s.002.081.052.007l.088-.12zm1.483.008c-.112-.101-.158-.117-.158-.055 0 .072.088.146.176.147s.086.001-.018-.092zm-2.186 3.519c-.095-.019-.169-.106-.138-.16.038-.065.082-.045.162.073.042.062.071.11.065.107a.99.99 0 0 0-.089-.021zm-10.892-.15c-.003-.097.07-.235.115-.217.035.014.043-.019.033-.131-.009-.097.012-.206.058-.31.039-.088.092-.228.116-.311s.103-.251.174-.375l.231-.439c.056-.118.14-.257.186-.309s.136-.175.2-.273c.14-.215.162-.233.299-.235l.107-.001-.082-.066-.082-.066.333-.329.406-.402c.04-.04.086-.073.102-.073.066 0 .273-.124.273-.164 0-.023.044-.071.098-.106l.277-.196a1.46 1.46 0 0 1 .362-.189c.101-.031.203-.082.228-.113s.062-.057.082-.057.063-.022.094-.05c.059-.052.404-.175.491-.175.028 0 .078-.017.112-.038s.151-.069.259-.107l.26-.097c.037-.017.063-.012.063.011 0 .045-.362.306-.423.306-.022 0-.03.026-.019.058.023.063-.08.205-.149.205-.047 0-.503.51-.59.659-.029.05-.072.091-.095.091s-.209.173-.412.385l-.585.6-.344.356-.286.3-.21.217c-.161.173-.401.392-.43.392-.018 0-.05-.033-.07-.073-.037-.072-.039-.072-.161.009-.068.045-.124.112-.125.148-.002.08.01.081.143.008.212-.115.114.059-.225.399-.358.359-.443.405-.408.221.012-.062.008-.113-.009-.113-.039 0-.125.321-.098.367.012.02-.011.066-.05.103s-.071.052-.071.033-.04.017-.088.079-.089.093-.089.068zm.536-.856c0-.031-.016-.056-.036-.056s-.036.025-.036.056.016.056.036.056.036-.025.036-.056zm.072-.169c0-.021-.007-.038-.016-.038s-.026.017-.038.038-.005.038.016.038.038-.017.038-.038zm.968-.733c.034-.043.035-.069.006-.1-.047-.05-.15.023-.15.106 0 .069.088.066.144-.006zm-.252-.467c0-.041-.016-.075-.036-.075s-.036.034-.036.075.016.075.036.075.036-.034.036-.075zm.848-.082c.121-.119.108-.188-.033-.174-.102.01-.118.026-.128.134-.013.145.041.159.161.04zm-.382-.5c0-.112-.088-.127-.141-.024-.041.081-.018.117.075.117.046 0 .066-.028.066-.094zm.938-.122c.11-.135.109-.159-.006-.159s-.168.068-.131.169c.027.074.071.071.137-.009zm-.247-.309c-.01-.041-.033-.075-.05-.075-.048 0-.038.104.013.125l.05.022c.003.002-.003-.031-.013-.072zm.634-.206c0-.031.028-.057.063-.057.077-.001.188-.086.188-.144 0-.024-.045-.043-.1-.043-.078 0-.11.026-.149.122l-.065.15c-.008.015.003.028.024.028s.039-.025.039-.056zm0-.413c.037-.047.033-.056-.022-.056-.107.001-.228.043-.228.079 0 .056.203.037.251-.023zm.511-.131c.023-.091-.022-.126-.118-.094-.079.026-.096.115-.027.144.088.037.126.024.145-.05zm.206-.17c.032-.04.034-.07.009-.097-.045-.047-.189.035-.189.107 0 .066.125.059.18-.011zm6.466 1.946c-.013-.014-.025-.077-.026-.141a.6.6 0 0 0-.036-.191c-.026-.057-.029-.043-.015.059.01.074.008.145-.004.158-.036.037-.157-.044-.157-.106 0-.03-.056-.093-.124-.139s-.133-.123-.144-.169-.045-.084-.075-.084-.096-.043-.146-.096c-.068-.071-.086-.119-.069-.188.019-.078.009-.092-.064-.092-.047 0-.095-.025-.106-.055s-.089-.092-.174-.137-.175-.114-.202-.153c-.062-.092-.659-.706-.687-.706-.034 0-.186-.229-.166-.25a2.62 2.62 0 0 1 .649.174c.02.017.101.044.18.059s.173.043.208.062.157.059.268.088.252.078.311.108l.276.132c.093.043.186.111.206.151s.059.064.086.054c.072-.029.096.213.09.897-.005.546-.017.631-.081.564zm-.453-.703c0-.057-.104-.114-.139-.077-.012.012.01.047.048.076.086.066.092.066.092.001zm.215-.4c0-.092-.014-.143-.036-.129-.061.039-.04.281.024.281.007 0 .012-.069.012-.152zm0-.448c0-.021-.016-.038-.036-.038s-.036.017-.036.038.016.038.036.038.036-.017.036-.038zm-.376-.075c-.012-.021-.053-.038-.092-.038s-.069.017-.069.038.041.038.092.038.082-.016.069-.038zm-.702-.146c.069-.046.017-.116-.085-.116-.11 0-.145.06-.063.109s.087.048.149.007zm-.253-.219c.01-.071-.005-.084-.096-.084-.127 0-.172.056-.109.135s.192.051.206-.05z" fill="#c08352"/><path d="M19.758 19.544c-.08-.046-.193-.086-.223-.08a2.2 2.2 0 0 1-.286-.054 3.93 3.93 0 0 0-.426-.073c-.233-.02-.388-.051-.464-.094-.036-.02-.143-.039-.237-.043s-.189-.02-.212-.038-.147-.036-.277-.04-.236-.021-.236-.036.033-.028.074-.028.065-.014.055-.031-.071-.023-.136-.014c-.175.026-.116-.01.204-.123a7.6 7.6 0 0 0 1.306-.647l.286-.195c.01-.012.098-.08.197-.152a6.68 6.68 0 0 0 1.629-1.858c.063-.116.121-.204.128-.197.022.023-.124.847-.22 1.246a9.21 9.21 0 0 1-.375 1.211l-.07.18c0 .051-.208.515-.349.78-.073.136-.223.321-.223.273 0-.018-.02-.015-.045.005s-.069.024-.098.007zm-.191-.319c.032-.034.084-.048.124-.034.108.036.353-.019.353-.08 0-.029.023-.053.051-.053.054 0 .281-.427.246-.463-.011-.011.016-.102.06-.201l.178-.405a2.79 2.79 0 0 0 .142-.413l.118-.459c.104-.374.037-.435-.112-.102-.042.094-.104.181-.138.193s-.098.066-.142.12-.08.08-.081.058.072-.121.161-.22c.094-.105.161-.214.161-.265s.024-.096.054-.107.054-.041.054-.065.048-.101.107-.171.107-.168.107-.218a.7.7 0 0 1 .02-.158c.019-.065.017-.065-.027.001l-.152.241c-.058.094-.143.213-.188.264s-.082.107-.082.125c0 .072-.708.857-.772.857-.022 0-.07.035-.106.077-.053.062-.058.091-.026.146.047.079.026.114-.068.114-.036 0-.066-.025-.066-.055 0-.072-.086-.037-.21.084-.128.126-.47.362-.675.467-.329.168-.361.199-.216.207a1.79 1.79 0 0 1 .206.03l.179.034c.03.005.059.051.064.102.01.091.018.094.281.088.256-.006.272-.001.303.086.018.051.024.124.012.162-.026.085.006.09.079.013zm-.248-.756c-.073-.02-.079-.054-.02-.117.077-.081.172-.054.172.049 0 .092-.024.103-.152.068zm.928-.265c-.009-.015-.003-.062.013-.103.025-.066.029-.062.031.028.003.102-.014.13-.045.075zm.369-.722c0-.021.016-.038.036-.038s.036.017.036.038-.016.038-.036.038-.036-.017-.036-.038zm-2.277 1.269c-.009-.016-.057-.009-.106.014-.06.028-.075.052-.047.07.048.031.179-.04.153-.084zm-1.267.329c0-.008.024-.024.054-.036s.054-.005.054.015-.024.036-.054.036-.054-.007-.054-.015zm8.813-.319c-.214-.077-.229-.09-.795-.665l-.579-.582-1.709-1.721-.914-.919-2.16-2.279c.03-.022.016-.025-.037-.009s-.081.01-.076-.026c.014-.11-.006-.143-.082-.134-.056.006-.079-.01-.076-.054s-.014-.055-.046-.042-.046.003-.04-.019-.022-.065-.061-.097c-.064-.052-.065-.058-.009-.059.043-.001.063-.031.063-.099a.52.52 0 0 1 .063-.209c.06-.106.06-.114 0-.16s-.063-.126-.063-.766c0-.454-.013-.718-.036-.718s-.036-.043-.036-.096-.023-.121-.052-.151c-.053-.055-.039-.165.02-.165.048 0 .038.066-.013.088-.03.013-.026.02.011.022.031.002.074-.016.096-.04.047-.05.345.239 2.083 2.017l.844.856.752.764 1.825 1.863 2.088 2.255a1.35 1.35 0 0 1 .042.296c0 .605-.568 1.041-1.102.848zm.442-.06c.199-.063.489-.304.497-.415.003-.04.025-.11.048-.155.059-.113.053-.295-.01-.362a.55.55 0 0 1-.086-.209c-.039-.18-.335-.514-.551-.621-.103-.051-.126-.078-.097-.115s.017-.064-.043-.108c-.104-.076-.311-.079-.339-.003-.011.031-.036.056-.055.056s-.023-.018-.01-.04-.009-.049-.049-.06-.081-.042-.09-.069c-.013-.037.021-.044.141-.031.102.011.158.003.158-.024 0-.062-.11-.226-.152-.226-.02 0-.128-.099-.239-.22s-.239-.24-.283-.265a.3.3 0 0 1-.114-.138c-.042-.116-.131-.154-.222-.094-.065.043-.069.038-.047-.063.02-.095.003-.128-.131-.254-.085-.08-.182-.192-.216-.25s-.084-.105-.11-.105-.111-.084-.188-.186-.169-.187-.204-.188-.079-.044-.098-.096-.073-.11-.121-.129-.097-.065-.108-.102-.192-.237-.401-.443l-.753-.769-.373-.394-.07.089c-.069.087-.07.087-.07.009 0-.044.016-.079.036-.079s.036-.017.036-.037c0-.032-.605-.674-.939-.995l-.196-.206c-.188-.221-.251-.271-.28-.222-.018.031 0 .068.049.102.097.067.098.106.006.131-.049.013-.065.039-.049.081.02.055.03.056.106.004.095-.065.104-.055.138.139.027.159-.002.175-.123.065-.064-.058-.09-.065-.112-.028-.045.074-.035.165.024.217.073.064.068.125-.009.104-.056-.015-.062.011-.052.249.006.146.028.304.051.35.032.067.029.098-.019.153-.066.076-.087.442-.024.401.02-.013.036.018.036.073 0 .115-.054.125-.107.021-.033-.065-.143-.109-.143-.057a8.18 8.18 0 0 0 .412.458c.31.332.412.421.412.361 0-.044-.024-.089-.054-.101-.064-.026-.072-.099-.011-.099.023 0 .079.036.124.08.063.062.073.096.047.149s.004.111.18.304l.242.263c.438.44.607.59.645.575.026-.01.062.019.08.065.037.095.108.171 1.21 1.306l.83.822c.018 0 .043-.017.055-.038s.038-.028.058-.015.018.044-.01.08c-.037.047-.033.066.023.109.037.029.089.052.115.052s.047.026.047.057.117.177.26.323c.488.5.735.71.892.762.204.067.203.067.408.003zm-.389-.118c-.027-.029.003-.089.045-.089.016 0 .039.025.05.056.02.056-.05.08-.095.032zm.385-.174c-.012-.033-.006-.089.012-.125.031-.058.037-.056.06.02.031.101-.038.2-.073.105zm-.795-.165c-.093-.039-.046-.112.063-.096.06.009.107.039.107.069 0 .051-.082.064-.17.027zm1.089-.113c-.044-.046-.025-.125.03-.125.03 0 .054.033.054.075 0 .075-.038.098-.084.05zm-1.312-.088c0-.021.024-.038.054-.038s.054.017.054.038-.024.038-.054.038-.054-.017-.054-.038zm-.412-.442c-.135-.082-.168-.129-.121-.177.025-.026.05-.018.079.022.023.033.079.08.123.104s.081.061.081.081c0 .051-.038.044-.161-.03zm.233-.158c0-.021.016-.038.036-.038s.036.017.036.038-.016.038-.036.038-.036-.017-.036-.038zm1.065-.176c-.085-.023-.079-.127.009-.151.039-.011.073-.039.074-.062.004-.061.064.095.067.173.003.065-.028.073-.15.04zm-1.85-.232c-.041-.08-.018-.117.073-.117.079 0 .111.05.082.128s-.111.075-.155-.01zm-.589-.606c-.071-.066-.13-.146-.13-.178 0-.052.006-.052.063 0a.33.33 0 0 0 .152.071c.094.013.141.124.08.188-.022.024-.081-.006-.164-.083zm.228-.187c0-.021.016-.038.036-.038s.036.017.036.038-.016.038-.036.038-.036-.017-.036-.038zm.922-.167c-.097-.127-.129-.246-.067-.246.041 0 .326.299.326.342 0 .085-.169.023-.26-.096zm-1.675-.27c-.054-.148-.029-.171.1-.089.076.049.108.093.095.131-.034.094-.155.068-.194-.042zm.825-.259c0-.032.016-.048.036-.035s.036.039.036.058-.016.035-.036.035-.036-.026-.036-.058zm.277-.149c-.074-.089-.134-.2-.134-.247 0-.11.061-.048.078.079.007.051.049.112.096.136.117.061.15.102.121.152-.016.027-.074-.016-.16-.119zm-1.65-.236c-.072-.084-.075-.119-.01-.119.027 0 .059.037.07.083.027.11.012.12-.06.036zm.979-.194c-.046-.031-.045-.036.009-.037.034 0 .063.016.063.037 0 .046-.004.046-.072 0zm.394.002c0-.019-.033-.046-.074-.059s-.069-.05-.062-.087c.017-.093.116-.076.129.022.007.054.036.084.081.084.038 0 .069.017.069.038s-.032.038-.072.038-.072-.016-.072-.035zm-.447-.303c-.014-.065-.047-.126-.075-.138s-.05-.061-.05-.11c0-.069.019-.09.085-.09.071 0 .082.015.068.093s.002.101.079.132c.108.043.106.1-.006.178-.07.049-.077.045-.1-.065zm-1.548-.019c-.022-.041-.049-.07-.06-.065s-.041.008-.065.007-.013-.016.026-.032c.079-.032.177.043.153.118-.009.029-.029.018-.054-.028zm-.367-.205c0-.021.016-.038.036-.038s.036.017.036.038-.016.038-.036.038-.036-.017-.036-.038zm1.223-.15c0-.052.008-.073.018-.047s.01.068 0 .094-.018.005-.018-.047zm.364-.011c-.025-.043.084-.139.156-.139.026 0 .047.032.047.071 0 .078-.165.134-.203.069zm-1.816-.233c-.064-.051-.064-.056-.005-.079.038-.015.076-.004.094.027.069.114.023.141-.089.052zm1.568-.009a.93.93 0 0 0-.053-.131c-.043-.084-.042-.104.004-.104.053 0 .213.188.213.249 0 .075-.142.062-.165-.015zm-.71-.268c-.011-.018.004-.054.034-.08.044-.039.053-.033.053.033 0 .08-.051.108-.087.046zm.445-.116c-.046-.03-.043-.043.018-.092.099-.079.132-.072.119.023s-.061.119-.137.069zm-1.79-.095c-.019-.052-.047-.095-.062-.097-.1-.011-.244-.042-.256-.055-.028-.03.077-.13.136-.13.068 0 .253.186.253.255 0 .025.017.045.038.045s.028.017.016.038c-.038.065-.09.041-.125-.056zm1.489-.116c-.012-.033-.009-.084.008-.115.026-.049.035-.048.076.003.048.06.029.172-.029.172-.018 0-.043-.027-.055-.059zm-1.346-.205c0-.022.016-.029.036-.017s.036.031.036.04-.016.017-.036.017-.036-.018-.036-.04zm.987-.209c-.012-.034-.015-.069-.006-.078.033-.034.165.035.165.086 0 .074-.13.068-.158-.008zm-.916-.464c0-.021.016-.038.036-.038s.036.017.036.038-.016.038-.036.038-.036-.017-.036-.038zm.351-.138c.026-.011.057-.009.069.003s-.009.021-.047.02-.05-.011-.022-.023zm-.184-.149c-.013-.014-.023-.052-.023-.084.001-.049.008-.047.039.009.039.069.027.121-.016.075zm-.167-.313c0-.021.016-.038.036-.038s.036.017.036.038-.016.038-.036.038-.036-.017-.036-.038zm-.26-.06c-.012-.012-.013-.045-.003-.073.023-.063.12-.028.12.043 0 .052-.077.072-.117.03zm-.671 1.035c0-.021-.024-.038-.054-.038s-.054.017-.054.038.024.038.054.038.054-.017.054-.038zm.229-.182c.022-.038-.072-.183-.1-.154s.016.186.051.186c.016 0 .038-.014.048-.032zm-.602-.146c-.038-.04-.059.016-.032.088s.027.068.04.002c.007-.038.004-.079-.008-.091zm-.415-.443c0-.032-.016-.048-.036-.035s-.027.039-.016.058c.031.052.052.042.052-.024zm1.002-1.104c-.081-.118-.124-.138-.162-.073-.032.054.043.141.138.16l.089.021c.006.003-.023-.046-.065-.107zm-.951-.291a.45.45 0 0 1-.059-.066c-.015-.021-.027-.009-.027.028s.026.066.059.066.045-.013.027-.028zm.128-.647c-.021-.041-.056-.075-.078-.075s-.011.034.025.075.071.075.078.075-.004-.034-.025-.075zm-.189-.21c-.012-.012-.043-.014-.069-.003s-.02.021.022.023.059-.007.047-.02zm-7.564 8.136c-.025-.042-.077-.062-.148-.056-.085.007-.113-.009-.129-.073s-.029-.074-.076-.033c-.031.027-.056.034-.056.016s-.016-.007-.036.024c-.029.046-.041.047-.066.006-.018-.029-.126-.058-.26-.069-.126-.01-.285-.045-.354-.076s-.222-.061-.34-.065c-.305-.011-.447-.052-.448-.127 0-.05-.007-.052-.032-.011s-.063.015-.169-.107c-.167-.192-.514-.711-.514-.769 0-.04.757-.845.795-.845.01 0 .088.114.173.253.318.52.773 1.072 1.282 1.553.101.096.185.197.185.225 0 .039.008.038.034-.005s.037-.046.057.009c.013.036.044.065.068.065s.073.034.109.075c.05.057.053.075.014.075-.028 0-.068-.029-.089-.065zm-.372-.235c0-.021-.017-.038-.038-.038s-.028.017-.016.038.029.038.038.038.016-.017.016-.038zm-.312-.292c-.035-.099-.337-.455-.406-.478-.033-.011-.07-.07-.082-.131-.015-.078-.048-.118-.112-.134-.095-.025-.34-.367-.34-.475 0-.032-.022-.067-.049-.077s-.059-.072-.071-.135-.04-.116-.063-.116-.162.122-.311.272l-.355.356c-.073.072-.079.096-.044.166.074.145.426.506.426.436 0-.151.151-.118.216.047.05.127.213.16.215.044.001-.06.006-.059.053.006s.054.065.074.009c.031-.086.148-.078.194.013.041.081.162.106.134.028-.054-.15-.061-.212-.028-.233.02-.013.063.034.095.105.043.095.076.124.126.11.037-.01.067-.001.067.021 0 .059.216.273.252.25.017-.011.021-.049.008-.085zm-1.549-.496c0-.041.016-.075.036-.075s.036.034.036.075-.016.075-.036.075-.036-.034-.036-.075zm.644.021c0-.032.016-.058.036-.058s.036.016.036.035-.016.046-.036.058-.036-.003-.036-.035zm-.782-.282c.008-.025.026-.044.04-.042.043.005.035.056-.012.072-.024.008-.037-.005-.029-.03zm.11-.159c.022-.07.099-.081.099-.015 0 .033-.026.059-.057.059s-.05-.02-.043-.045zm.35.832c0-.021-.016-.038-.036-.038s-.036.017-.036.038.016.038.036.038.036-.017.036-.038zm.215.436c0-.008.025-.035.055-.062.046-.04.051-.037.032.014s-.086.089-.086.047zm14.308-4.204l-.779-.801.009-1.137.009-1.137.182.298c.382.624.599 1.052.807 1.592l.14.356c.142.336.486 1.634.432 1.63-.012-.001-.373-.362-.801-.802zm.644.398c-.071-.087-.11-.198-.102-.291a3.58 3.58 0 0 0-.175-.747.48.48 0 0 1-.048-.132c-.012-.052-.055-.132-.096-.179s-.065-.101-.052-.122c.031-.053-.087-.365-.148-.389-.027-.011-.05-.061-.05-.111 0-.113-.117-.271-.173-.234-.023.015-.042.076-.042.135s-.014.117-.032.129c-.041.026-.124-.077-.098-.122.011-.018-.003-.066-.032-.105-.073-.101-.066-.121.045-.134.151-.018.141-.134-.034-.402l-.194-.31c-.022-.041-.056-.091-.074-.111-.036-.038-.062 1.768-.027 1.885.011.037.076.103.144.147s.123.104.123.133.024.053.054.053.054.023.054.052.068.114.152.189l.25.239c.085.088.108.095.17.055.101-.066.144-.058.144.028 0 .05-.024.075-.072.075-.039 0-.072.009-.072.02s.093.111.206.222c.142.139.21.184.218.146.007-.031-.011-.084-.039-.119zm-.599-.653c0-.058.069-.142.117-.142.017 0 .026.038.02.084-.012.091-.137.143-.137.058zm.072-.46c0-.031.006-.056.014-.056s.023.025.035.056.005.056-.014.056-.035-.025-.035-.056zm-.717-.133c-.072-.141-.028-.189.086-.093.057.048.092.105.078.128-.039.066-.122.048-.165-.035zm.45-.422c-.015-.037-.018-.078-.006-.091.036-.038.066.015.049.089-.015.066-.017.066-.043.001zm-.449-.702c0-.15.015-.263.036-.263s.036.113.036.263-.015.263-.036.263-.036-.113-.036-.263zm-4.367.786c0-.022.016-.029.036-.017s.036.031.036.04-.016.017-.036.017-.036-.018-.036-.04zm-.422-.433c-.025-.029-.03-.052-.011-.052.037 0 .091.071.07.092-.007.007-.033-.011-.059-.04zm3.258-.555l-1.039-1.061-.512-.522.011-1.18c.011-1.171.012-1.182.097-1.325.158-.267.224-.287.944-.287s.81.022.975.248l.107.146.01 2.26-.028 2.26c-.021 0-.275-.243-.565-.54zm.496-1.843l-.002-2.128-.117-.14c-.143-.172-.219-.188-.926-.195-.477-.005-.534.002-.647.075-.276.179-.262.104-.262 1.414v1.174l.102.107 1.77 1.811c.033.02.066.03.072.023a99.55 99.55 0 0 0 .009-2.14zm-.182 1.783c0-.021.016-.038.036-.038s.036.017.036.038-.016.038-.036.038-.036-.017-.036-.038zm-1.037-1.011c-.029-.019-.042-.046-.028-.06.033-.034.135.009.135.058s-.037.049-.106.003zm-.597-2.29c0-.175.006-.247.014-.159s.008.231 0 .319-.014.016-.014-.159zm-.047-.401c-.001-.083.084-.2.145-.2.043 0 .042.03-.004.086a2.22 2.22 0 0 0-.088.12c-.051.074-.051.074-.052-.007zm1.511-.068c-.05-.059-.059-.131-.018-.131.015 0 .074.042.131.094.104.094.104.094.018.092-.047-.001-.106-.025-.131-.055zM9.45 11.213c0-.024.049-.223.109-.442.489-1.779 1.646-3.248 3.202-4.065.526-.276 1.198-.521 1.664-.604.137-.025.102.013-2.275 2.434l-2.5 2.564c-.098.115-.2.174-.2.115zm.286-.356c0 .019.032.004.071-.033s.061-.083.05-.103c-.027-.046.058-.367.098-.367.017 0 .021.051.009.113-.035.184.05.138.408-.221.339-.34.438-.514.225-.399-.134.072-.145.072-.143-.008.001-.036.057-.103.125-.148.121-.081.124-.081.161-.009.021.04.052.073.07.073.029 0 .269-.219.43-.392l.21-.217.286-.3.344-.356.585-.6c.204-.211.39-.385.412-.385s.066-.041.095-.091c.087-.149.543-.659.59-.659.069 0 .172-.142.149-.205-.012-.032-.003-.058.019-.058.062 0 .423-.262.423-.306 0-.023-.026-.028-.063-.011s-.151.059-.26.097-.225.086-.259.107-.085.038-.112.038c-.087 0-.432.123-.491.175-.031.027-.073.05-.094.05s-.058.025-.082.057-.127.082-.228.113a1.46 1.46 0 0 0-.362.189l-.277.196c-.054.035-.098.083-.098.106 0 .04-.207.164-.273.164-.016 0-.062.033-.102.073l-.406.402-.333.329.082.066.082.066-.107.001c-.137.002-.16.019-.299.235-.064.098-.154.221-.2.273s-.13.192-.186.309l-.231.439c-.071.124-.149.293-.174.375s-.077.222-.116.311c-.046.104-.067.213-.058.31.01.112.002.145-.033.131-.027-.011-.061.021-.082.077-.059.161-.036.19.056.072.048-.062.088-.097.088-.079zm.287-.709c0-.031.016-.056.036-.056s.036.025.036.056-.016.056-.036.056-.036-.025-.036-.056zm.089-.169c.012-.021.029-.038.038-.038s.016.017.016.038-.017.038-.038.038-.028-.017-.016-.038zm.877-.727c0-.083.103-.156.15-.106.029.031.028.057-.006.1-.057.072-.144.076-.144.006zm-.179-.474c0-.041.016-.075.036-.075s.036.034.036.075-.016.075-.036.075-.036-.034-.036-.075zm.758-.122c.01-.107.025-.123.128-.134.141-.014.154.055.033.174s-.174.105-.161-.04zm-.375-.389c-.035-.037.043-.164.101-.164.032 0 .052.036.052.094 0 .066-.019.094-.066.094-.036 0-.076-.011-.088-.024zm.954-.183c-.037-.101.016-.169.131-.169s.116.025.006.159c-.066.08-.11.084-.137.009zM12 7.816c-.051-.021-.062-.125-.013-.125.017 0 .04.034.05.075a.26.26 0 0 1 .013.072c-.003-.002-.026-.011-.05-.022zm.608-.228a3.15 3.15 0 0 0 .065-.15c.039-.096.071-.122.149-.122.055 0 .1.019.1.043 0 .058-.111.142-.188.144-.034.001-.063.027-.063.057s-.017.056-.039.056-.032-.013-.024-.028zm-.188-.418c0-.036.121-.078.228-.079.056 0 .059.009.022.056-.048.06-.251.079-.251.023zm.617-.104c-.069-.029-.053-.117.027-.144.096-.032.141.003.118.094-.018.074-.057.087-.145.05zm.17-.21c0-.073.144-.155.189-.107.026.027.023.057-.009.097-.055.07-.18.077-.18.011zm6.652 2.082c-.096-.111-2.314-2.381-2.441-2.498-.076-.07-.076-.07.085-.043.538.091 1.449.379 2.102.665l.366.16.001.91-.011.91c-.007 0-.052-.046-.101-.103zm.074-.711c.006-.684-.018-.926-.09-.897-.027.011-.066-.013-.086-.054s-.113-.108-.206-.151l-.276-.132c-.059-.03-.199-.078-.311-.108s-.233-.069-.268-.088-.13-.047-.208-.062-.16-.041-.18-.059a2.62 2.62 0 0 0-.649-.174c-.02.021.132.25.166.25.028 0 .625.613.687.706.026.039.117.108.202.153s.163.107.174.137.059.055.106.055c.074 0 .083.013.064.092-.016.068.002.117.069.188.05.053.116.096.146.096s.064.038.075.084.076.123.144.169.124.109.124.139c0 .061.121.143.157.106.013-.013.015-.084.004-.158-.014-.102-.011-.116.015-.059a.6.6 0 0 1 .036.191c.003.114.026.166.076.166.014 0 .028-.265.031-.589zm-.626-.14c-.038-.029-.06-.063-.048-.076.035-.037.139.02.139.077 0 .065-.006.065-.092-.001zm.259-.272a.3.3 0 0 1 .012-.256c.022-.014.036.037.036.129 0 .156-.006.171-.048.127zm-.024-.575c0-.021.016-.038.036-.038s.036.017.036.038-.016.038-.036.038-.036-.017-.036-.038zm-.465-.075c0-.021.031-.038.069-.038s.079.017.092.038-.018.038-.069.038-.092-.017-.092-.038zm-.69-.154c-.081-.05-.047-.109.063-.109.102 0 .154.07.085.116-.062.041-.071.04-.149-.007zm-.31-.162c-.063-.079-.018-.135.109-.135.091 0 .106.013.096.084-.014.101-.141.132-.206.05z" fill="#bb8456"/><path d="M16.287 14.299c-.125-.131-.157-.322-.138-.826.015-.403.069-.543.231-.607.124-.049.993-.045 1.098.005.171.082.204.208.204.766v.514l-.122.128-.122.128h-.525-.525z" fill="#0dbbc8"/><path d="M19.026 20.898c-.011-.019-.004-.045.016-.058s.036-.042.036-.065-.032-.011-.071.026c-.054.051-.102.061-.206.042l-.295-.041c-.088-.009-.166-.033-.173-.055s-.059-.04-.115-.04-.111-.016-.123-.035c-.018-.03-.126-.048-.566-.093-.054-.006-.109-.021-.122-.035s-.065-.025-.115-.025c-.088 0-.089-.002-.021-.052.039-.028.163-.082.276-.119.12-.04.206-.089.206-.12s-.024-.044-.063-.033-.183.047-.331.08l-.403.097c-.074.02-.148.028-.163.018s-.091-.003-.169.015c-.107.025-.154.02-.198-.021-.031-.03-.099-.054-.151-.054s-.171-.016-.266-.036l-.629-.102c-.114-.012-.215-.037-.226-.055s-.073-.032-.139-.032-.126-.019-.134-.043-.164-.058-.37-.078c-.196-.02-.384-.051-.419-.07s-.063-.02-.063-.003c0 .063-.118.03-.134-.037-.018-.074-.152-.097-.152-.027 0 .029-.016.028-.053-.004-.031-.027-.126-.041-.233-.033-.099.007-.184 0-.189-.016-.017-.054-.434-.137-.481-.096-.03.026-.069.02-.125-.022-.109-.08-.213-.082-.117-.001.061.051.056.051-.047-.001-.064-.032-.116-.074-.116-.092s-.025-.043-.056-.055-.046-.006-.034.015.011.037-.002.037c-.057 0-.567-.299-.929-.544-.636-.431-1.08-.852-1.655-1.569-.158-.197-.482-.734-.468-.776a8.17 8.17 0 0 1 .736-.772c.006.006-.15.177-.348.38s-.358.388-.358.411c0 .059.346.577.514.77.107.123.145.147.169.107s.031-.039.032.011c.001.075.143.115.448.127.118.004.271.034.34.065s.228.066.354.076c.134.011.241.04.26.069.025.041.037.04.066-.006.019-.031.035-.042.036-.024s.026.011.056-.016c.047-.041.059-.035.077.036.017.066.04.081.11.067.057-.011.113.008.156.053.091.095.168.091.085-.004-.036-.041-.085-.075-.109-.075s-.055-.029-.068-.065c-.02-.055-.028-.057-.057-.009s-.033.044-.034.005c0-.028-.084-.129-.185-.225-.498-.471-.96-1.029-1.263-1.525a1.76 1.76 0 0 0-.193-.272c-.047-.039-.047-.047-.003-.047.029 0 .105.092.169.204.856 1.499 2.392 2.642 4.053 3.015a6.14 6.14 0 0 0 3.006-.105c.174-.054.218-.043.09.022l-.107.055.118-.014c.065-.008.126 0 .136.017s-.015.031-.055.031-.074.013-.074.028.106.032.236.036.255.023.277.04.118.035.212.038.201.022.237.043c.076.043.231.074.464.094.091.008.283.041.426.073l.286.054c.03-.006.142.034.23.083.038.021.069.02.083-.003s.035-.029.05-.019c.036.024.146-.112.236-.292.039-.079.087-.153.105-.166.05-.033-.321.681-.49.944-.342.532-.685.952-.724.887zm-1.845-1.839c0-.02-.024-.027-.054-.015s-.054.028-.054.036.024.015.054.015.054-.016.054-.036zm-6.893-1.226c.019-.051.014-.054-.032-.014-.062.054-.069.076-.023.076.018 0 .042-.028.055-.062zm7.03 2.775c.026-.011.057-.009.069.003s-.009.021-.047.02-.05-.011-.022-.023zm2.942-1.621c0-.021.016-.048.036-.061s.036-.006.036.014-.016.048-.036.061-.036.006-.036-.014zm-2.756-.091c.01-.01.171-.08.358-.155.36-.145.916-.443 1.171-.627.084-.061.153-.097.152-.08-.001.035-.529.367-.841.53-.356.185-.912.405-.84.333zm2.848-.101c.013-.052.038-.11.055-.129.051-.057.035.025-.025.129l-.054.094zm-12.272-.027c-.041-.043-.061-.049-.061-.017 0 .026-.014.039-.031.028s-.102-.027-.188-.035c-.263-.025-.361-.063-.336-.131.014-.038-.011-.028-.069.03-.05.049-.099.082-.108.072s.072-.108.18-.219l.197-.202.151.151.276.269c.069.065.109.119.088.119s-.065-.029-.098-.064zm17.782.037c-.129-.033-.419-.296-1.094-.994l-.537-.568.862.853c.566.575.582.587.795.665.171.062.154.09-.026.044zm.436-.012c.215-.045.345-.125.491-.304.071-.087.129-.142.129-.122 0 .069-.269.327-.412.395-.079.038-.191.067-.251.065-.091-.003-.084-.008.042-.034zm-5.837-.258c.036-.145.124-.351.142-.332.009.009-.024.108-.074.22s-.08.162-.068.112zm6.484-.303c.015-.052.026-.195.026-.319s-.012-.267-.026-.319c-.02-.071-.014-.066.025.019.028.062.052.197.052.3s-.023.238-.052.3c-.039.085-.045.09-.025.019zm-6.288-.225a.24.24 0 0 1 .033-.113c.042-.069.042-.009 0 .094-.02.049-.031.056-.033.019zm-1.417-.025a5.71 5.71 0 0 1 .215-.182 6.65 6.65 0 0 0 1.421-1.601c.19-.303.274-.399.133-.152a7.78 7.78 0 0 1-1.34 1.625c-.223.189-.532.413-.429.311zm1.524-.313a.24.24 0 0 1 .033-.113c.042-.069.042-.009 0 .094-.02.049-.031.056-.033.019zm.071-.247c.002-.044.01-.053.022-.023s.009.059-.003.072-.02-.01-.019-.049zm5.67-.368l-1.629-1.675-1.664-1.725c.079.068.45.438.824.822l1.748 1.786 1.101 1.154c.047.092.056.1-.381-.362zm-5.634.218c.002-.044.01-.053.022-.023s.009.059-.003.072-.02-.01-.019-.049zm.076-.259a.71.71 0 0 1 .029-.169c.023-.074.029-.078.029-.019a.71.71 0 0 1-.029.169c-.023.074-.029.078-.029.019zm2.964-.06c-.208-.191-.997-1.009-.972-1.007s1.142 1.124 1.115 1.123c-.01 0-.074-.052-.143-.116zm-7.621-.281c-.061-.053-.11-.115-.11-.136s.033.005.074.059.125.114.188.133c.085.026.094.035.036.038-.043.002-.127-.04-.188-.094zm1.167.042c.063-.029.138-.1.169-.158s.056-.084.056-.056c.002.074-.198.269-.273.268-.042-.001-.024-.02.048-.053zm3.558-.042c.002-.044.01-.053.022-.023s.009.059-.003.072-.02-.01-.019-.049zm.041-.184c0-.062.012-.163.027-.225.038-.156.04-.003.002.188-.025.126-.03.132-.029.038zM16.157 16c0-.268.006-.373.013-.233v.488c-.007.128-.013.013-.013-.255zm1.539 0c0-.248.006-.344.013-.214a4.78 4.78 0 0 1 0 .45c-.007.118-.013.012-.013-.236zm3.43.038c.001-.062.009-.083.018-.046s.009.087-.001.113-.017-.005-.017-.066zm1.326-.555c-.515-.539-.548-.587-.097-.141l.445.44c.048.047.08.093.07.103s-.198-.171-.418-.402zm-1.368.347c0-.015.024-.048.054-.073.045-.039.054-.034.054.027 0 .04-.024.073-.054.073s-.054-.012-.054-.027zm-3.436-.327c0-.023-.026-.068-.058-.102s-.049-.07-.039-.081.047.024.081.078.051.109.039.122-.023.005-.023-.017zm-1.437-.073c.089-.177.167-.199.702-.198.276 0 .521.013.544.028s-.207.022-.511.016l-.553-.012-.112.125c-.073.081-.097.096-.07.042zm5.327-.862l-.411-.444c.006-.006.201.183.434.42l.411.444c-.006.007-.202-.182-.434-.42zm3.3-.519l-.465-.506c.013 0 .224.211.47.469l.492.469c.025 0 .045.017.045.038s-.012.037-.027.037-.246-.228-.515-.506zm.473.335c.002-.044.01-.053.022-.023s.009.059-.003.072-.02-.01-.019-.049zm-.033-.166c0-.052.008-.073.018-.047s.01.068 0 .094-.018.005-.018-.047zm-4.714-.63l-.993-1.016-.472-.524c.011-.012.037.003.057.033.032.048.035.048.022-.001-.008-.031-.049-.058-.092-.061-.048-.003-.288-.221-.641-.584l-2.036-2.08c-.424-.432-.578-.567-.643-.563-.047.003-.086.024-.086.046 0 .057-.138.183-.167.153-.013-.014.007-.062.045-.109.057-.07.058-.076.005-.032-.09.073-.122.019-.043-.073.058-.067.059-.074.006-.052s-.061-.039-.061-.77l-.036-.771c-.02.013-.036.005-.036-.017s.016-.04.036-.04.036-.06.036-.134c0-.122-.007-.131-.081-.108l-.081.026.072-.086.072-.086-.081.021c-.116.031-.064-.034.091-.112.092-.046.21-.065.383-.062.448.007.413-.021 2.112 1.702l1.075 1.089 3.4 3.47.304.333-.467-.465-.824-.839-2.015-1.946c-.071.008-.072.006-.009-.022s.062-.033.01-.054c-.032-.013-.068-.008-.08.012s-.048.035-.082.033-.043-.01-.016-.022c.051-.022.061-.088.013-.088-.059 0-.073.11-.02.165.029.03.052.098.052.151s.016.096.036.096.036.264.036.718c0 .64.007.723.063.766s.06.054 0 .16a.52.52 0 0 0-.063.209c0 .067-.019.098-.063.099-.056.001-.055.007.009.059.039.032.067.075.061.097s.012.03.04.019.049.003.046.042.02.06.076.054c.077-.008.097.024.082.134-.005.035.018.043.076.026s.066-.013.037.009.147.232.656.756l.689.736c-.007.007-.238-.218-.513-.5zm-.948-1.074c0-.009-.016-.027-.036-.04s-.036-.005-.036.017.016.04.036.04.036-.007.036-.017zm5.623 1.533c.002-.044.01-.053.022-.023s.009.059-.003.072-.02-.01-.019-.049zm-.036-.15c.002-.044.01-.053.022-.023s.009.059-.003.072-.02-.01-.019-.049zm-.074-.241c-.053-.205-.025-.235.033-.034.024.085.036.162.026.173s-.036-.052-.059-.139zm-1.129-.46c-.156-.169-.228-.255-.159-.191.347.323.48.461.463.479-.011.011-.147-.118-.304-.288zm.992-.015c-.044-.137-.072-.256-.064-.264s.051.096.094.233.072.256.064.264-.05-.096-.094-.233zm-.134-.373c-.012-.039-.061-.17-.109-.292s-.081-.227-.074-.235.065.114.128.272.106.295.096.306-.029-.012-.041-.051zm-5.437-.612c-.011-.019-.004-.046.016-.058s.036.003.036.035c0 .066-.021.076-.052.024zm5.08-.253l-.13-.284c-.018-.036-.024-.066-.014-.066.028 0 .277.53.258.55-.009.009-.06-.081-.114-.201zm-1.615.127l-.579-.601-.508-.544c.017.006.273.26.569.565l.575.553c.02 0 .037.017.037.038 0 .05-.044.045-.094-.011zm1.327-.693c-.215-.391-.456-.757-.485-.738-.017.011-.021-.007-.009-.04.023-.063.307.349.52.755.13.249.109.268-.025.023zm-14.797-.15c.002-.09.006-.093.031-.028s.109-.008.664-.581l1.151-1.163c.078-.072-.294.319-.826.87l-.995 1.004c-.015.001-.026-.045-.024-.101zm.038-.159a.43.43 0 0 1 .031-.131c.019-.047.031-.054.031-.019a.43.43 0 0 1-.031.131c-.019.047-.031.054-.031.019zm12.237-.227c0-.022.016-.029.036-.017s.036.031.036.04-.016.017-.036.017-.036-.018-.036-.04zm-12.169-.057c0-.04.017-.097.037-.128.027-.041.03-.026.012.056-.029.138-.05.168-.049.072zm9.915-.044c0-.037.012-.05.027-.028a.45.45 0 0 0 .059.066c.018.015.006.028-.027.028s-.059-.029-.059-.066zm1.796-.358l-.401-.44c0-.01.187.173.415.406l.401.44c-.008.008-.195-.174-.415-.406zm-11.601.049a.24.24 0 0 1 .033-.113c.042-.069.042-.009 0 .094-.02.049-.031.056-.033.019zm.091-.261c.035-.143.228-.578.247-.558s-.04.149-.226.556l-.043.094zm9.875-.04c-.036-.041-.047-.075-.025-.075s.057.034.078.075.032.075.025.075-.043-.034-.078-.075zm-9.575-.654a1.29 1.29 0 0 1 .165-.284c.008 0-.018.068-.058.15-.064.132-.107.185-.107.133zm1.539-.34c.067-.072.129-.131.139-.131s-.037.059-.104.131-.129.131-.139.131.037-.059.104-.131zm3.758.021c0-.042.14-.13.165-.104.009.009-.025.045-.075.079s-.091.046-.091.025zm-5.096-.049a5.93 5.93 0 0 1 .514-.741l.151-.169-.16.206c-.088.113-.235.329-.327.478l-.185.272c-.01 0-.006-.021.008-.047zm9.159-.617l-1.315-1.347-.743-.781c0-.012.036-.019.081-.017.064.003.067.008.016.022-.061.017-.061.021.005.081.116.106 2.338 2.38 2.437 2.494l.092.107.019-.932.019-.932.008.947-.019.946c-.015-.001-.285-.265-.6-.588zm-6.944-.244l.725-.727c.013.013-1.133 1.195-1.297 1.338-.079.068.179-.206.573-.611zm-1.377-.277c.183-.196.644-.611.804-.725.094-.066-.05.07-.392.371l-.417.403c-.077.088-.152.16-.166.16s.063-.094.171-.209zm9.774-.365c-.004-.092.08-.255.179-.345.069-.063.066-.053-.017.063-.054.076-.112.186-.129.244s-.031.078-.033.038zm2.114-.026c0-.052.008-.073.018-.047s.01.068 0 .094-.018.005-.018-.047zm-9.742-.108c0-.037.216-.242.234-.222.007.008-.042.068-.11.133s-.124.106-.124.089zm9.608-.146c-.082-.115-.086-.127-.019-.066.078.071.166.207.134.207-.008 0-.06-.063-.115-.141zm-10.861-.14c0-.053.89-.6.922-.567.009.009-.086.071-.211.137s-.336.193-.469.283l-.242.147zm1.539.005c0-.015.233-.266.518-.556l.499-.561c-.011-.018.007-.033.039-.033s.053.013.047.028c-.022.051-1.103 1.151-1.103 1.123zm6.336-.025c-.03-.02-.038-.036-.018-.036s.06.016.089.036.038.036.018.036-.06-.016-.089-.036zm1.342-.019c.061-.052.17-.059.759-.049.508.008.699.024.734.061s.029.042-.054.009c-.132-.052-1.328-.053-1.432 0-.077.039-.077.039-.007-.021zm-1.593-.094c-.069-.04-.109-.072-.089-.072s.092.032.161.072.109.072.089.072-.092-.032-.161-.072zm-.251-.113c-.03-.02-.038-.036-.018-.036s.06.016.089.036.038.036.018.036-.06-.016-.089-.036zm-.519-.188l-.354-.147c.048-.003.765.247.793.276.037.038-.043.015-.439-.13zm-5.691-.262c.118-.059.239-.107.268-.108s-.057.049-.191.11c-.31.141-.361.14-.077-.001zm4.893.029c-.163-.041-.29-.083-.281-.091.018-.019.668.137.668.16s-.067.013-.386-.068zm-.463-.13c.035-.01.083-.009.107.001s-.004.018-.063.017-.079-.009-.044-.019zm-4.054-.049c.03-.02.07-.036.089-.036s.012.016-.018.036-.07.036-.089.036-.012-.016.018-.036zm.322-.114c.108-.038.229-.069.268-.069s-.033.032-.161.071c-.295.09-.367.088-.107-.003zm.528-.136c.025-.01.065-.01.089 0s.005.019-.045.019-.069-.009-.045-.019z" fill="#9b6257"/><path d="M14.101 14.358c-.157-.13-.177-.214-.177-.74 0-.418.011-.525.061-.601.116-.176.145-.184.703-.185.479-.001.542.006.634.075.133.099.177.271.176.692-.001.44-.042.617-.167.722-.094.079-.134.084-.637.083-.367-.001-.554-.015-.592-.047z" fill="#17c228"/><path d="M17.913 22.018c-.013-.022-.055-.032-.093-.022s-.121.002-.184-.018a3.25 3.25 0 0 0-.312-.073l-.698-.121c-.039-.004-.088-.018-.107-.031-.084-.057-.449-.13-.696-.14-.147-.006-.296-.026-.331-.046a.81.81 0 0 0-.216-.057l-.511-.097-.662-.108-.483-.06-.179-.028.161-.024.161-.024-.197-.007c-.108-.004-.269-.025-.358-.047a2.08 2.08 0 0 0-.286-.049c-.069-.005-.221-.039-.338-.076-.15-.047-.217-.055-.227-.025-.007.023-.038.042-.069.042-.047 0-.048-.009-.006-.062.053-.067.07-.068-.237.01-.065.017-.089.008-.089-.033 0-.069-.186-.112-.224-.052-.02.032-.034.032-.056-.003-.033-.054-.354-.13-.741-.176-.059-.007-.14-.021-.179-.031-.114-.029-.389-.081-.447-.083-.141-.007-.573-.104-.573-.129 0-.015-.099-.032-.221-.036s-.249-.024-.283-.043c-.043-.024-.067-.021-.077.012s-.028.035-.073-.004c-.074-.064-.271-.114-.541-.138-.117-.01-.25-.044-.296-.076-.063-.044-.101-.048-.155-.017-.084.047-.177.008-.101-.042.036-.024.029-.032-.026-.033-.094-.001-.259-.086-.362-.186-.043-.042-.087-.077-.096-.077s-.056-.038-.102-.084l-.346-.342-.262-.258.406-.427c.223-.235.431-.426.46-.426s.151.096.269.211c.563.55 1.538 1.224 2.327 1.609l.503.246c.08.039.169.071.199.071s.068.015.087.033c.05.048.678.25 1.062.341l.442.115a.8.8 0 0 0 .206.036c.053 0 .096.013.096.028 0 .033.16.039 1.253.052.877.01 1.115-.018 1.943-.233l1.064-.32c.315-.106.389-.114.215-.024-.101.052-.111.067-.054.076a.74.74 0 0 1 .125.034c.058.023.11.031.456.068.123.013.233.04.244.059s.066.035.123.035.108.018.115.04.085.047.173.055l.295.041c.103.019.152.009.206-.042.039-.037.071-.049.071-.026s-.016.052-.036.065-.027.04-.015.059c.028.048.283-.239.519-.584.105-.154.197-.274.205-.266.018.019-.457.712-.661.966-.185.229-.797.894-.823.894-.01 0-.059.034-.109.075-.1.083-.207.098-.244.034zm-.527-1.407c-.012-.012-.043-.014-.069-.003s-.02.021.022.023.059-.007.047-.02zm-9.297-1.897l-.276-.269-.151-.151-.197.202c-.108.111-.189.21-.18.219s.058-.023.108-.072c.058-.057.083-.068.069-.03-.025.068.073.106.336.131.086.008.171.024.188.035s.031-.001.031-.028c0-.032.02-.027.061.017.034.035.078.064.098.064s-.019-.053-.088-.119zm7.034 1.785c-1.851-.26-3.514-1.019-4.619-2.107-.226-.223-.15-.169.199.142.301.268.926.701 1.312.911.268.145.318.163.281.102-.012-.021.001-.028.031-.016a.15.15 0 0 1 .073.077c.014.037.045.048.094.032s.11.001.164.037c.061.042.104.05.133.025.046-.04.463.043.48.097.005.016.09.024.189.016.107-.008.201.006.233.033.037.032.053.033.053.004 0-.07.134-.047.152.027.017.067.134.1.134.037 0-.017.028-.016.063.003s.223.05.419.07c.206.021.362.054.37.078s.068.043.134.043.129.014.139.032.112.042.226.055a5.66 5.66 0 0 1 .629.102c.094.02.214.036.266.036s.12.024.151.054c.044.041.091.046.198.021.077-.018.153-.025.169-.015s.089.002.163-.018l.403-.097.331-.08c.039-.012.063.001.063.033 0 .059-.23.146-.305.116-.027-.011-.223.015-.435.057-.83.165-1.249.186-1.89.096zm-2.541-.804c-.012-.021-.041-.037-.065-.037s-.021.015.011.037c.069.047.081.047.054 0zm7.391-.075c.021-.041.046-.075.056-.075s.001.034-.02.075-.046.075-.056.075-.001-.034.02-.075zm.163-.311c.013-.037.033-.058.044-.046s0 .042-.024.067c-.035.037-.039.032-.02-.021zm-4.681-.129c.084-.008.213-.008.286 0s.004.015-.153.014-.217-.007-.133-.015zm-.502-.036a.49.49 0 0 1 .161 0c.044.009.008.016-.081.016s-.125-.007-.081-.016zm1.128 0a.61.61 0 0 1 .179.001c.044.009 0 .016-.099.016s-.134-.008-.08-.016zm-1.45-.037c.045-.009.109-.009.143.001s-.002.017-.081.016-.107-.008-.062-.017zm1.807.001c.034-.009.091-.009.125 0s.006.017-.063.017-.097-.008-.063-.017zm3.821-.049c.021-.041.046-.075.056-.075s.001.034-.02.075-.046.075-.056.075-.001-.034.02-.075zm-5.96 0c-.096-.026-.098-.029-.018-.029a.66.66 0 0 1 .179.029c.07.024.074.03.018.029a.91.91 0 0 1-.179-.029zm2.409.012c.026-.011.057-.009.069.003s-.009.021-.047.02-.05-.011-.022-.023zm.143-.038c.026-.011.057-.009.069.003s-.009.021-.047.02-.05-.011-.022-.023zm-2.756-.038c.026-.011.057-.009.069.003s-.009.021-.047.02-.05-.011-.022-.023zm2.935 0c.026-.011.057-.009.069.003s-.009.021-.047.02-.05-.011-.022-.023zm-3.161-.049c-.045-.02-.052-.032-.018-.032a.38.38 0 0 1 .125.032c.045.02.052.032.018.032a.38.38 0 0 1-.125-.032zm-.333-.101c-.085-.031-.148-.064-.14-.072.016-.017.348.097.348.12s-.041.014-.208-.048zm3.913.026c.098-.044.155-.044.089 0-.03.02-.078.035-.107.034-.035-.001-.029-.013.018-.034zm8.636-.027c.045-.009.109-.009.143.001s-.002.017-.081.016-.107-.008-.062-.017zm-12.842-.124c-.03-.02-.038-.036-.018-.036s.06.016.089.036.038.036.018.036-.06-.016-.089-.036zm12.344-.066c-.045-.059-.043-.061.014-.014s.079.08.049.08c-.007 0-.036-.03-.063-.066zm1.043.051c0-.008.028-.037.063-.066.057-.047.058-.045.014.014s-.076.082-.076.051zm-13.548-.06c-.013-.021.002-.028.034-.015.062.025.073.052.022.052-.019 0-.044-.017-.056-.037zm7.357.018c0-.021.016-.063.035-.094s.035-.039.035-.019-.016.063-.035.094-.035.039-.035.019zm-7.706-.19c-.133-.071-.242-.138-.242-.149 0-.017.498.233.534.268.049.047-.083-.007-.292-.119zm14.094.021c.036-.041.073-.075.083-.075s-.011.034-.047.075-.073.075-.083.075.011-.034.047-.075zm-1.647-.234l-.25-.272.26.262c.241.243.276.282.25.282-.005 0-.122-.122-.26-.272zm-4.669.216c0-.021.016-.063.035-.094s.035-.039.035-.019-.016.063-.035.094-.035.039-.035.019zm6.407-.113c0-.021.016-.063.035-.094s.035-.039.035-.019-.016.063-.035.094-.035.039-.035.019zm-14.554-.115c-.067-.056-.066-.057.011-.017.044.023.081.049.081.058 0 .029-.019.02-.092-.041zm6.427.005c0-.01.032-.037.072-.059s.072-.032.072-.021-.032.037-.072.059-.072.032-.072.021zm-6.721-.191c-.103-.073-.187-.14-.187-.15s.089.044.197.119c.172.12.223.164.187.164-.005 0-.094-.06-.197-.132zm-1.908-.008l-.087-.103.098.091c.092.085.115.115.087.115-.006 0-.051-.046-.098-.103zm14.674-.15c-.045-.059-.043-.061.014-.014s.079.08.049.08c-.007 0-.036-.03-.063-.066zm-5.544.014c0-.008.028-.037.063-.066.057-.047.058-.045.014.014s-.076.082-.076.051zm-7.749-.282l-.483-.478c-.124-.139-.078-.102.125.1l.501.476c.098.086.171.158.161.158a3.27 3.27 0 0 1-.304-.257zm-1.649.099l-.105-.122.116.11c.064.061.116.115.116.122 0 .029-.03.003-.128-.11zm9.541.07c0-.008.028-.037.063-.066.057-.047.058-.045.014.014s-.076.082-.076.051zm.179-.15c0-.008.028-.037.063-.066.057-.047.058-.045.014.014s-.076.082-.076.051zm-9.897-.136c-.036-.041-.058-.082-.05-.09s.044.026.079.075c.078.109.061.118-.029.015zm14.478-.253l-.303-.328.313.318.303.338c-.005 0-.146-.148-.313-.328zm2.741.264c-.019-.053-.015-.058.02-.021.024.025.035.056.024.067s-.031-.009-.044-.046zm-6.067-.145c.002-.044.01-.053.022-.023s.009.059-.003.072-.02-.01-.019-.049zm-.808-.166l.194-.188c.01 0-.061.084-.158.188l-.194.188c-.01 0 .061-.084.158-.188zm6.549-.122l-.25-.272.26.262c.241.243.276.282.25.282-.005 0-.122-.122-.26-.272zm-17.26-.113c-.054-.073-.087-.141-.07-.141.009 0 .042.042.075.094.06.097.057.13-.005.047zm11.033-.141c.036-.041.073-.075.083-.075s-.011.034-.047.075-.073.075-.083.075.011-.034.047-.075zm-9.668-.084l-.068-.084.081.071c.076.067.097.097.068.097-.007 0-.043-.038-.081-.084zm-1.506-.012c-.013-.036.011-.091.062-.141l.084-.081-.066.083c-.036.046-.056.109-.045.141s.013.058.003.058-.028-.027-.04-.059zm7.496.032c.123-.007.324-.007.447 0s.022.013-.224.013-.347-.006-.224-.013zm-2.596-.083c-.161-.105-.187-.202-.187-.703 0-.687.076-.762.776-.762s.763.063.763.786c0 .487 0 .489-.104.611l-.104.123-.513.011c-.464.01-.524.003-.63-.066zm6.417-.039c.036-.041.073-.075.083-.075s-.011.034-.047.075-.073.075-.083.075.011-.034.047-.075zm3.022-.028l-.087-.103.098.091c.054.05.098.096.098.103 0 .029-.029.006-.11-.091zm-12.959-.038c-.045-.059-.043-.061.014-.014s.079.08.049.08c-.007 0-.036-.03-.063-.066zm10.027-.061c0-.008.028-.037.063-.066.057-.047.058-.045.014.014s-.076.082-.076.051zm-11.007-.286l.267-.263c.01 0-.094.118-.231.263l-.267.263c-.01 0 .094-.118.231-.263zm11.478.188c0-.052.008-.073.018-.047s.01.068 0 .094-.018.005-.018-.047zm2.123-.159l-.214-.234.224.224.224.234c0 .028-.035-.006-.234-.224zm2.592.019c-.045-.059-.043-.061.014-.014s.079.08.049.08c-.007 0-.036-.03-.063-.066zm-4.935-.122c.021-.041.046-.075.056-.075s.001.034-.02.075-.046.075-.056.075-.001-.034.02-.075zm4.491-.347l-.357-.385.367.374.367.385c0 .027-.045-.017-.377-.374zm-4.198.141c.001-.062.009-.083.018-.046s.009.087-.001.113-.017-.005-.017-.066zm-.13-.067c.013-.037.033-.058.044-.046s0 .042-.024.067c-.035.037-.039.032-.02-.021zm-10.98-.09c.026-.011.057-.009.069.003s-.009.021-.047.02-.05-.011-.022-.023zm11.031-.026c0-.008.028-.037.063-.066.057-.047.058-.045.014.014s-.076.082-.076.051zm1.27-.37l-.286-.309.295.299.295.309c0 .027-.04-.012-.305-.299zm-.375-.368c0-.022.016-.029.036-.017s.036.031.036.04-.016.017-.036.017-.036-.018-.036-.04zm2.537-.063c-.045-.059-.043-.061.014-.014s.079.08.049.08c-.007 0-.036-.03-.063-.066zm-.426-.45l-.303-.328.313.318.303.338c-.005 0-.146-.148-.313-.328zm-2.596.019l-.141-.159.152.148.152.159c0 .028-.031 0-.163-.148zm3.757-.038l-.068-.084.089.075.104.084c.008.005-.001.01-.021.01s-.067-.038-.104-.084zm-.463-.488l-.357-.385.367.374.367.385c0 .027-.045-.017-.377-.374zm-7.23.272c.036-.041.073-.075.083-.075s-.011.034-.047.075-.073.075-.083.075.011-.034.047-.075zm3.7.009c-.045-.059-.043-.061.014-.014.034.028.063.058.063.066 0 .031-.029.011-.076-.051zm-3.561-.685c0-.279.006-.392.013-.253a6.2 6.2 0 0 1 0 .506c-.007.139-.013.025-.013-.253zm2.759-.122l-.393-.422.403.412.393.432c-.005 0-.186-.19-.403-.422zm2.309-.319l-.519-.553.528.543.519.563c-.005 0-.243-.249-.528-.553zm1.503.346c-.038-.048-.036-.053.014-.034.032.013.059.039.059.057 0 .048-.021.041-.072-.024zm-.386-.404l-.187-.199.01-1.142.01-1.142.008 1.143.008 1.143.187.198c.103.109.179.198.169.198s-.102-.089-.205-.199zm-6.251-.09c-.019-.053-.015-.058.02-.021.024.025.035.056.024.067s-.031-.009-.044-.046zm7.304-.106c-.035-.094-.024-.119.018-.043.021.038.03.076.021.086s-.027-.01-.039-.043zm-5.41-.364l-.321-.347.331.337.331.347c0 .027-.042-.015-.341-.337zm-7.713.149c0-.013.034-.057.076-.099.073-.072.075-.088.036-.407-.045-.366-.054-1.106-.018-1.466.017-.173.037-.231.078-.231s.044-.008-.008-.049c-.058-.044-.059-.053-.007-.098.087-.075.068-.131-.024-.07-.044.03-.118.064-.163.076-.107.028-.044-.04 1.855-2.033l1.7-1.69c.149-.078.229-.094.483-.093.26 0 .331.015.483.1.172.095 1.119 1.034 2.417 2.394.294.308.356.381.143.169l-.914-.92c-1.688-1.713-1.664-1.694-2.112-1.701-.173-.003-.292.016-.383.062-.155.078-.207.142-.091.112l.081-.021-.072.086-.072.086.081-.026c.073-.024.081-.014.081.108 0 .074-.016.134-.036.134s-.036.018-.036.04.016.029.036.017.036.251.036.771c0 .731.005.792.061.77s.052-.015-.006.052c-.079.092-.048.146.043.073.053-.043.052-.038-.005.032-.038.046-.058.095-.045.109.029.03.167-.096.167-.153 0-.023.038-.043.085-.046.063-.004.218.13.617.532l.515.555c-.01.01-.248-.217-.53-.504l-.55-.521c-.031 0-.78.721-1.247 1.2l-2.091 2.067-.313.301c-.095.095-.172.164-.172.153s-.04.019-.089.067-.089.077-.089.064zm3.673-3.655c-.025-.026-.165.063-.165.104 0 .02.041.009.091-.025s.083-.07.075-.079zm9.164 3.158c-.035-.094-.024-.119.018-.043.021.038.03.076.021.086s-.027-.01-.039-.043zm-3.28-.458l-.447-.478.456.468.447.488c-.005 0-.211-.215-.456-.478zm-2.308.366c-.036-.041-.057-.083-.048-.094s.052.024.095.075c.092.111.047.128-.047.018zm3.911-1.453l.019-2.298c.005-.444.013.227.018 1.491l-.019 2.298c-.015 0-.023-.671-.018-1.491zm-4.054 1.304c-.012-.021-.005-.038.016-.038s.038.017.038.038-.007.038-.016.038-.026-.017-.038-.038zm3.808-.028c-.045-.059-.043-.061.014-.014s.079.08.049.08c-.007 0-.036-.03-.063-.066zm-4.432-.611l-.523-.561c.016 0 .275.253.574.563l.523.561c-.012-.001-.27-.254-.574-.563zm3.988.142l-.214-.234.224.224.224.234c0 .028-.035-.006-.234-.224zm-12.879-.091c-.013-.014-.023-.052-.023-.084.001-.049.008-.047.039.009.039.069.027.121-.016.075zm.227-.219a.43.43 0 0 1 .102-.094c.01 0-.02.042-.066.094a.43.43 0 0 1-.102.094c-.01 0 .02-.042.066-.094zm12.275-.084l-.123-.141.134.129c.125.12.151.152.123.152-.006 0-.066-.063-.134-.141zm-11.756-.46l.41-.413c.01 0-.159.186-.375.413l-.41.413c-.01 0 .159-.186.375-.413zm9.95-.159l-.393-.422.403.412.393.432c-.005 0-.186-.19-.403-.422zm-2.789-.123l-.375-.408c.009-.009.195.168.414.394l.375.408c-.013-.001-.199-.178-.414-.394zm6.387.248c0-.019.016-.046.035-.058s.026.002.014.035c-.024.065-.049.077-.049.023zm-14.1-.137c.002-.044.01-.053.022-.023s.009.059-.003.072-.02-.01-.019-.049zm11.459-.214l-.259-.273.01-1.086.01-1.086.008 1.087.008 1.087.259.273.241.273a3.12 3.12 0 0 1-.277-.273zm-1.565-.364c-.012-.021-.005-.038.016-.038s.038.017.038.038-.007.038-.016.038-.026-.017-.038-.038zm-8.072-.544l.536-.544c.01 0-.215.245-.5.544l-.536.544c-.01 0 .215-.245.5-.544zm7.925.385l-.068-.084.081.071c.044.039.081.077.081.084 0 .03-.029.008-.093-.071zm-9.39-.141c.052-.115.069-.136.069-.088 0 .02-.025.069-.056.109-.052.069-.053.067-.013-.021zm.105-.225c.021-.041.046-.075.056-.075s.001.034-.02.075-.046.075-.056.075-.001-.034.02-.075zm.107-.188c.021-.041.046-.075.056-.075s.001.034-.02.075-.046.075-.056.075-.001-.034.02-.075zm9.754-.075c-.012-.021.002-.028.033-.015.048.019.056-.09.065-.91l.01-.932.008.947c.007.804 0 .947-.043.947-.028 0-.061-.017-.073-.037zm-.395-.422l-.321-.347.331.337.331.347c0 .027-.042-.015-.341-.337zm-6.8-.666l.41-.413c.01 0-.159.186-.375.413l-.41.413c-.01 0 .159-.186.375-.413zm-1.951.281a.43.43 0 0 1 .102-.094c.01 0-.02.042-.066.094a.43.43 0 0 1-.102.094c-.01 0 .02-.042.066-.094zm.286-.338c.067-.072.129-.131.139-.131s-.037.059-.104.131-.129.131-.139.131.037-.059.104-.131zm.179-.183c0-.008.028-.037.063-.066.057-.047.058-.045.014.014s-.076.082-.076.051zm9.564-.117c.001-.062.009-.083.018-.046s.009.087-.001.113-.017-.004-.017-.066zm-2.319-.028l-.068-.084.081.071c.044.039.081.077.081.084 0 .03-.029.008-.093-.071zm-6.994-.084a.43.43 0 0 1 .102-.094c.01 0-.02.042-.066.094a.43.43 0 0 1-.102.094c-.01 0 .02-.042.066-.094zm6.532-.403l-.357-.385.367.374.367.385c0 .027-.045-.017-.377-.374zm4.907.32c-.019-.053-.015-.058.02-.021.024.025.035.056.024.067s-.031-.009-.044-.046zm-11.242-.086c.036-.041.073-.075.083-.075s-.011.034-.047.075-.073.075-.083.075.011-.034.047-.075zm9.271-.075c.036-.041.073-.075.083-.075s-.011.034-.047.075-.073.075-.083.075.011-.034.047-.075zm1.858-.009l-.068-.084.081.071c.076.067.097.097.068.097-.007 0-.043-.038-.081-.084zm-8.766-.628l.482-.488c.01 0-.191.219-.446.488l-.482.488c-.01 0 .191-.219.446-.488zm5.673.45c-.03-.02-.038-.036-.018-.036s.06.016.089.036.038.036.018.036-.06-.016-.089-.036zm1.888-.028h.591c.162.007.03.013-.295.013s-.458-.006-.295-.013zm-8.94-.363c0-.01.032-.037.072-.059s.072-.032.072-.021-.032.037-.072.059-.072.032-.072.021zm.465-.246c.03-.02.07-.036.089-.036s.012.016-.018.036-.07.036-.089.036-.012-.016.018-.036zm4.176-.025c-.047-.049-.023-.125.039-.124.05 0 .052.007.013.033-.027.018-.038.052-.025.074.027.046.01.056-.027.017zm.542-.001c.026-.011.057-.01.069.003s-.009.021-.047.02-.05-.011-.022-.023zm-.143-.038c.026-.011.057-.01.069.003s-.009.021-.047.02-.05-.011-.022-.023zm-4.331-.038c.026-.011.057-.01.069.003s-.009.021-.047.02-.05-.011-.022-.023zm4.114.001c.025-.01.065-.01.089 0s.005.019-.045.019-.069-.009-.045-.019zm-3.398-.226c.026-.011.057-.01.069.003s-.009.021-.047.02-.05-.011-.022-.023zm.497-.049c.01-.041.034-.065.052-.053s.016.043-.008.075c-.056.071-.066.067-.044-.022zm-.354.011c.026-.011.057-.01.069.003s-.009.021-.047.02-.05-.011-.022-.023zm.179-.038c.026-.011.057-.01.069.003s-.009.021-.047.02-.05-.011-.022-.023z" fill="#591d60"/><path d="M16.306 26.715c.019-.018.203-.096.41-.172l.447-.17a20.21 20.21 0 0 0 1.02-.505c.03-.022.11-.071.179-.11.156-.087 1.015-.68 1.08-.745a3.92 3.92 0 0 1 .209-.178c.35-.282 1.05-.995 1.307-1.332l.183-.225c.04-.038.259-.345.539-.758a6.34 6.34 0 0 0 .28-.463c.17-.317.662-1.375.662-1.424a.29.29 0 0 1 .035-.104 7.42 7.42 0 0 0 .251-.74l.083-.319c.082-.317.194-.92.239-1.294.057-.468.066-.506.12-.506s.083.032.989.935l.677.666.122.113-.056.222c-.105.415-.198.658-.514 1.347-.612 1.332-1.43 2.441-2.496 3.384-.327.289-.888.729-1.075.843l-.273.171a17.99 17.99 0 0 1-1.271.67c-.538.249-1.678.568-2.392.669-.47.067-.809.079-.756.027zm-2.472-.885c-.52-.075-.89-.163-1.345-.322-.656-.229-1.426-.625-1.378-.707.009-.016.134.001.278.038a9.08 9.08 0 0 0 2.931.169c.635-.087 1.325-.268 1.733-.453.059-.027.148-.061.197-.077.301-.094 1.462-.799 1.741-1.058l.358-.318c.281-.245.803-.798 1.09-1.156a12.15 12.15 0 0 0 1.607-2.739l.162-.394a10.13 10.13 0 0 0 .575-2.195l.071-.446c.027-.029.183.108.528.463l.351.361-.021.214a12.24 12.24 0 0 1-.766 3.038 11.95 11.95 0 0 1-.899 1.732l-.332.498c-.024.027-.116.149-.205.271a12.86 12.86 0 0 1-1.056 1.147l-.291.253c-.101.088-.2.159-.22.159s-.042.013-.049.028a2.29 2.29 0 0 1-.358.291l-.871.5-.235.119c-.298.16-1.02.413-1.429.502-.669.144-1.507.176-2.166.081zm-2.183-1.914l-.573-.125-.268-.074a7.88 7.88 0 0 1-1.524-.646 7.96 7.96 0 0 1-1.854-1.398c-.303-.298-.365-.454-.1-.254.966.733 2.576 1.419 3.826 1.629 1.165.196 2.797.04 3.93-.377.315-.116.984-.454.984-.498 0-.019-.058-.019-.134-.001-.579.136-.943.166-1.978.167-1.18 0-1.498-.035-2.362-.263-.61-.161-.872-.249-1.271-.429l-1.062-.515-.223-.124c-.036 0-.75-.493-1.024-.708-.309-.242-.544-.46-.521-.483.009-.009.053.02.098.064.107.104.271.19.366.19.056 0 .063.009.026.033-.076.051.017.09.101.042.055-.031.092-.027.155.017.046.031.179.065.296.076.27.023.467.073.541.138.046.039.062.04.073.004s.034-.036.077-.012c.034.019.162.039.283.043s.221.021.221.036c0 .025.432.122.573.129.059.003.333.054.447.083a1.7 1.7 0 0 0 .179.031c.387.046.707.122.741.176.022.035.036.036.056.003.037-.06.224-.017.224.052 0 .041.024.05.089.033.307-.078.29-.078.237-.01-.042.054-.041.062.006.062.03 0 .061-.019.069-.042.009-.03.077-.023.227.025.117.037.27.071.338.076s.198.027.286.049.25.043.358.047l.197.007-.161.024-.161.024.179.028.483.06a7.77 7.77 0 0 1 .662.108l.511.097a.81.81 0 0 1 .216.057c.035.02.184.04.331.046.247.009.613.083.696.14.02.013.068.028.107.031.071.007.313.049.698.121l.312.073c.063.02.146.028.184.018s.08-.001.093.022c.037.063.144.048.244-.034.137-.113.161-.09.042.041-.185.203-.738.62-1.125.848-1.414.832-2.563 1.142-4.203 1.132-.654-.004-.864-.019-1.22-.089zm6.781-2.171l.136-.137c.032 0-.101.163-.176.216-.055.039-.042.012.04-.078zm.181-.186c0-.006.052-.061.116-.122l.116-.11-.105.122c-.098.114-.128.139-.128.11zm.358-.415c0-.008.028-.037.063-.066.057-.047.058-.045.014.014s-.076.082-.076.051zm-5.074-.126a5.41 5.41 0 0 1 .483 0c.133.007.024.013-.242.013s-.374-.006-.242-.013zm-1.047-.057c0-.015-.044-.028-.096-.028a.8.8 0 0 1-.206-.036c-.06-.02-.259-.072-.442-.115-.409-.097-1.015-.295-1.064-.347-.024-.026-.013-.029.036-.01a2.67 2.67 0 0 0 .197.064l.394.125c.355.119.875.23 1.468.316l.483.07-.384-.006c-.211-.003-.385-.018-.385-.034zm2.067.022c.025-.01.065-.01.089 0s.005.019-.045.019-.069-.009-.045-.019zm.289-.038c.026-.011.057-.009.069.003s-.009.021-.047.02-.05-.011-.022-.023zm.179-.038c.026-.011.057-.009.069.003s-.009.021-.047.02-.05-.011-.022-.023zm.215-.038c.026-.011.057-.009.069.003s-.009.021-.047.02-.05-.011-.022-.023zm-4.822-.52c-.067-.03-.114-.064-.104-.074s.089.015.175.056.133.075.104.074-.108-.026-.175-.056zm6.511.021c0-.021.017-.038.038-.038s.028.017.016.038-.029.038-.038.038-.016-.017-.016-.038zm-6.765-.15c-.03-.02-.038-.036-.018-.036s.06.016.089.036.038.036.018.036-.06-.016-.089-.036zm-.358-.169c-.128-.07-.217-.128-.197-.128s.14.057.268.128.217.128.197.128-.14-.057-.268-.128zm-.367-.19c-.134-.076-.126-.108.009-.035.059.032.107.066.107.076 0 .024-.004.023-.116-.041zm-2.642-.344l-.267-.288.251.24.284.27c.018.016.026.038.016.048s-.137-.111-.284-.27zm-.267-.535c.036-.041.073-.075.083-.075s-.011.034-.047.075-.073.075-.083.075.011-.034.047-.075zm-1.503-.14c-.355-.073-.603-.266-.719-.557-.066-.166-.064-.583.003-.753.031-.078.239-.325.498-.59l2.845-2.908 2.629-2.688 2.872-2.934c.041-.026-.056.082-.714.786l-1.018 1.165c.046-.012.119-.047.163-.076.091-.062.11-.006.024.07-.052.045-.051.054.007.098.053.04.054.049.008.049s-.061.058-.078.231c-.036.361-.027 1.101.018 1.466.039.32.038.336-.036.407-.042.041-.076.085-.076.099s.04-.016.089-.064.089-.08.089-.069.125-.105.277-.256.291-.275.307-.275c.027 0-.597.64-1.424 1.463l-.823.832-.663.67-1.791 1.8-1.688 1.702c-.248.248-.566.381-.798.334zm2.805-.113c-.045-.059-.043-.061.014-.014.034.028.063.058.063.066 0 .031-.029.011-.076-.051zm5.818-2.05l-.122-.128v-.52c0-.453.009-.535.072-.642.039-.068.113-.139.163-.159.117-.047 1.02-.048 1.137-.002.048.019.126.091.172.159.075.11.086.174.097.551.009.333-.001.463-.048.592-.091.25-.167.276-.807.276h-.542zm1.349-.051c.104-.122.104-.124.104-.611 0-.722-.062-.786-.763-.786s-.776.075-.776.762c0 .501.026.598.187.703.106.069.166.075.63.066l.513-.011zM6.05 14.64c.003-.279.29-1.327.563-2.054.187-.5.695-1.502.893-1.763a4.76 4.76 0 0 0 .133-.206c.347-.56 1.511-1.89 1.551-1.771.009.027-.06.204-.152.394l-.257.589-.134.356c-.196.486-.351 1.301-.428 2.248l-.015.185-1.015 1.043-1.077 1.044c-.036.001-.062-.026-.062-.065zm10.641-.225a4.97 4.97 0 0 1 .465 0c.122.007.013.013-.243.013s-.356-.006-.222-.013zm-.48-.15c-.045-.059-.043-.061.014-.014s.079.08.049.08c-.007 0-.036-.03-.063-.066zm.498-1.463c.124-.007.317-.007.43 0s.011.013-.225.013-.328-.006-.204-.013zm-3.84-1.06l.267-.263c.01 0-.094.118-.231.263l-.267.263c-.01 0 .094-.118.231-.263zm.38-.366c.002-.015.135-.154.295-.309l.291-.281-.286.309c-.289.313-.309.331-.301.281zm.998-1.004c.067-.072.129-.131.139-.131s-.037.059-.104.131-.129.131-.139.131.037-.059.104-.131zm.841-.844c.036-.041.073-.075.083-.075s-.011.034-.047.075-.073.075-.083.075.011-.034.047-.075z" fill="#3a0162"/><path d="M0 16V0h16 16v16 16H16 0zm17.062 10.688c.715-.101 1.854-.42 2.392-.669a17.99 17.99 0 0 0 1.271-.67l.273-.171c.187-.114.748-.553 1.075-.843.733-.648 1.283-1.3 1.87-2.215a8.37 8.37 0 0 0 .625-1.169c.316-.689.409-.933.514-1.347l.056-.222-.122-.113-.677-.666-.989-.935c-.054 0-.063.039-.12.506-.046.374-.157.977-.239 1.294l-.083.319a7.42 7.42 0 0 1-.251.74.29.29 0 0 0-.035.104 19.29 19.29 0 0 1-.662 1.424 6.34 6.34 0 0 1-.28.463l-.539.758a3.25 3.25 0 0 0-.183.225c-.257.337-.956 1.05-1.307 1.332l-.209.178c-.065.065-.923.658-1.08.745l-.179.11c-.047.035-.832.423-1.02.505l-.447.17-.41.172c-.053.052.286.04.756-.027zm-1.617-.842c.675-.093 1.512-.346 1.984-.599l.235-.119c.148-.073.622-.345.871-.5a2.29 2.29 0 0 0 .358-.291c.007-.015.028-.028.049-.028s.119-.072.22-.159l.291-.253a12.86 12.86 0 0 0 1.056-1.147l.205-.271c.024-.027.173-.251.332-.498a11.95 11.95 0 0 0 .899-1.732 12.24 12.24 0 0 0 .766-3.038l.021-.214-.351-.361c-.346-.355-.501-.492-.528-.463-.008.008-.039.209-.071.446a10.13 10.13 0 0 1-.575 2.195l-.162.394a12.15 12.15 0 0 1-1.607 2.739c-.287.357-.809.911-1.09 1.156l-.358.318c-.279.259-1.44.964-1.741 1.058-.049.015-.138.05-.197.077-.174.079-.768.269-1.038.333-1.038.244-2.566.223-3.626-.049-.465-.119-.338.025.296.336a7.05 7.05 0 0 0 2.148.656c.411.059 1.24.067 1.611.016zm-1.411-1.892c1.185-.175 1.995-.465 3.06-1.095.918-.543 1.63-1.266 2.479-2.517l.185-.29c0-.01.059-.114.13-.231.221-.362.606-1.208.783-1.72.251-.726.542-2.05.513-2.337-.012-.121-.016-.117-.174.167-.469.845-1.197 1.628-2.045 2.2-1.619 1.092-3.694 1.334-5.508.644-1.284-.489-2.479-1.507-3.194-2.722-.084-.142-.164-.259-.178-.259a9.23 9.23 0 0 0-.887.91c0 .02.083.166.184.323.962 1.494 2.357 2.552 4.105 3.114 1.211.389 2.345.501 3.263.322l.43-.077.125-.018-.143.059c-.283.116-.992.317-1.529.434-1.856.403-4.192-.054-6.121-1.198-.521-.309-1.225-.839-1.616-1.218-.246-.238-.213-.249-.676.221l-.42.458c0 .031.532.581.805.834.294.271 1.359 1.05 1.435 1.05.011 0 .111.056.223.124.168.103.44.235 1.062.515.398.18.661.268 1.271.429.864.228 1.183.263 2.362.263 1.035 0 1.399-.031 1.978-.167.076-.018.134-.017.134.001 0 .044-.669.383-.984.498-1.133.416-2.765.573-3.93.377-1.25-.21-2.86-.896-3.826-1.629-.264-.201-.203-.044.1.254.914.899 1.855 1.501 2.985 1.912l.394.131.268.074c.079.022.336.078.573.125.543.106 1.787.126 2.383.038zm3.355-3.609c.026-.011.057-.009.069.003s-.009.021-.047.02-.05-.011-.022-.023zM5.856 18.757c.081-.036.229-.148.329-.249l1.688-1.702 1.791-1.8.663-.67.823-.832 1.192-1.2.901-.901a194.39 194.39 0 0 0 2.139-2.157l.412-.385c.047-.011.242.172.915.86L18 11.029l1.003 1.013 2.221 2.235.895.904.575.575c.049.045.324.32.61.613l2.214 2.231c.193.179.366.246.63.246a.78.78 0 0 0 .651-.283c.161-.176.226-.363.226-.654 0-.357-.085-.51-.536-.96l-1.078-1.095-1.915-1.955-1.859-1.897-2.007-2.047-1.265-1.29c-2.209-2.258-2.039-2.117-2.545-2.118-.446-.001-.534.053-1.206.741l-.853.87-3.12 3.189-2.629 2.688-2.845 2.908c-.258.265-.466.511-.498.59-.068.169-.069.587-.003.753.084.211.295.424.48.486.313.105.45.102.708-.014zm9.463-2.006c.168-.091.225-.309.21-.812-.011-.377-.022-.441-.097-.551-.047-.068-.124-.14-.172-.159-.116-.046-1.02-.045-1.137.002-.05.02-.124.092-.163.159-.062.107-.071.189-.072.642v.52l.122.128.122.128h.542c.409 0 .568-.014.645-.055zm2.28-.106l.125-.143-.012-.526-.012-.526-.117-.109-.117-.109-.545.001c-.756.001-.778.023-.778.768 0 .593.034.675.322.785.03.011.268.017.531.012l.477-.008zM7.189 13.661l1.015-1.043.015-.185c.077-.948.232-1.762.428-2.248l.134-.356a7.6 7.6 0 0 1 .257-.589c.093-.19.161-.367.152-.394-.039-.118-1.203 1.211-1.551 1.771l-.133.206c-.092.121-.371.622-.554.994-.362.734-.658 1.599-.83 2.42-.088.419-.089.469-.01.468.034-.001.519-.47 1.077-1.044zm18.189.872c0-.105-.179-.842-.304-1.252-.196-.642-.518-1.399-.849-1.992-.174-.312-.485-.78-.505-.759-.013.014-.024.56-.024 1.213v1.188l.582.585.814.831c.244.258.286.286.286.187zm-7.816-.184c.137-.137.156-.225.156-.732 0-.769-.037-.805-.821-.805-.522 0-.524 0-.63.103l-.106.103-.012.565c-.013.629.002.686.214.799.099.053.205.062.622.053.444-.01.511-.02.577-.086zm-2.232-.028c.125-.105.166-.282.167-.722.001-.421-.043-.593-.176-.692-.093-.069-.155-.077-.634-.075-.558.001-.587.009-.703.185-.05.076-.061.183-.061.601s.011.525.061.601c.116.177.145.184.709.185.504.001.543-.004.637-.083zm7.677-4.502l-.01-2.335-.081-.119a.91.91 0 0 0-.215-.206c-.127-.083-.165-.087-.798-.087h-.665l-.149.103c-.287.199-.293.235-.293 1.596v1.196l.403.407 1.075 1.094.708.687c.023 0 .032-.805.026-2.335zm-12.234.193l.913-.93 2.459-2.508.501-.549c-.047-.028-.684.127-1.067.26-1.205.418-2.27 1.232-3.056 2.336-.534.75-.836 1.418-1.059 2.342-.049.202-.078.384-.066.404s.283-.232.601-.561l.776-.795zm9.271-1.834v-.937l-.085-.058c-.101-.069-.689-.326-1.042-.456-.287-.105-1.249-.367-1.477-.403-.177-.028-.201.025-.066.146a247.52 247.52 0 0 1 2.523 2.579c.138.162.147.106.147-.871z"/></svg>